# xmcd
#
# Track frame offsets:
#	150
#	23697
#	41639
#	61538
#	85951
#	108610
#	133713
#	155531
#	182372
#	200930
#	222665
#	243049
#	272194
#	287764
#	310722
#	335335
#
# Disc length: 4790
#
# Revision: 1
# Processed by: cddbd v1.5.1PL0 Copyright (c) Steve Scherf et al.
# Submitted via: CDex 1.51
# Normalized: r0:DSETVAR1,TDELIM( - )
#
DISCID=e612b410
DTITLE=Various Artist - Newtown - Mixed By Pascal Mantovani
DYEAR=2004
DGENRE=Soul
TTITLE0=Stephane Pompougnac - Morenito (feat. Clementine)
TTITLE1=Barriere feat. Themis - Sonhando Ipanema
TTITLE2=Dalminjo - And She Said (Physics bossa Mix)
TTITLE3=Hibiki Connection - Cha ka too (Yonama Beach Mix)
TTITLE4=Wax Poetic feat. Norah Jones - Angels (Dave Hernandez Remix)
TTITLE5=Claude Challe and Adam Plack - Carmenita Dancing
TTITLE6=Deep Soul - The piano
TTITLE7=Osunlade feat. Jaffa - Native Tongue Revisited
TTITLE8=Flying Pop's - Perif Fluide
TTITLE9=Late Night Alumni - Empty Streets
TTITLE10=One Mind's Eye - Coffee
TTITLE11=First Choice - Armed and Extremely Dangerous (Ian Carey Club Mix)
TTITLE12=TJM - I Don't Need No Music (Joey Negro Uptown Edit)
TTITLE13=Cerrone feat. Jocelyn Brown - Hooked On You (Jamie Lewis Mix)
TTITLE14=Havana Funk - Bakiri Ban
TTITLE15=First Choice - Love and Happiness (Dj Prom Remix)
EXTD=YEAR: 2004
EXTT0=
EXTT1=
EXTT2=
EXTT3=
EXTT4=
EXTT5=
EXTT6=
EXTT7=
EXTT8=
EXTT9=
EXTT10=
EXTT11=
EXTT12=
EXTT13=
EXTT14=
EXTT15=
PLAYORDER=
